<?xml version="1.0" standalone="no"?>
<!DOCTYPE svg PUBLIC "-//W3C//DTD SVG 20010904//EN"
 "http://www.w3.org/TR/2001/REC-SVG-20010904/DTD/svg10.dtd">
<svg version="1.0" xmlns="http://www.w3.org/2000/svg"
 width="480.000000pt" height="204.000000pt" viewBox="0 0 480.000000 204.000000"
 preserveAspectRatio="xMidYMid meet">

<g transform="translate(0.000000,204.000000) scale(0.100000,-0.100000)"
fill="##000000" stroke="none">
<path d="M253 2030 c-77 -18 -155 -74 -198 -141 -55 -86 -55 -82 -55 -869 0
-634 2 -733 16 -780 29 -98 80 -159 174 -207 l55 -28 2155 0 2155 0 55 28 c94
48 145 109 174 207 14 47 16 146 16 780 0 634 -2 733 -16 780 -29 98 -80 159
-174 207 l-55 28 -2135 2 c-1174 0 -2149 -2 -2167 -7z m602 -100 l0 -60 -290
0 -290 0 -36 -24 c-64 -44 -69 -66 -69 -315 l0 -221 2230 0 2230 0 0 221 c0
249 -5 271 -69 315 l-36 24 -1698 0 c-1615 0 -1699 1 -1691 18 5 9 8 36 7 60
l-1 42 1697 -2 1696 -3 46 -23 c59 -29 112 -82 141 -141 l23 -46 0 -755 0
-755 -23 -46 c-29 -59 -82 -112 -141 -141 l-46 -23 -2135 0 -2135 0 -46 23
c-59 29 -112 82 -141 141 l-23 46 -3 718 c-2 471 1 738 8 775 19 105 112 202
210 221 25 5 167 9 315 10 l270 1 0 -60z m155 50 c0 -5 -4 -10 -10 -10 -5 0
-10 5 -10 10 0 6 5 10 10 10 6 0 10 -4 10 -10z m-56 -16 c30 -30 13 -74 -29
-74 -46 0 -60 48 -23 74 28 20 33 20 52 0z m151 -4 c37 -41 -24 -97 -63 -58
-18 18 -15 55 6 67 25 15 37 13 57 -9z m-95 -75 c0 -8 -4 -15 -10 -15 -5 0
-10 7 -10 15 0 8 5 15 10 15 6 0 10 -7 10 -15z m-397 -62 c24 -14 33 -27 35
-52 5 -46 -8 -55 -49 -34 -19 10 -63 19 -99 21 -81 4 -122 -18 -150 -81 -57
-124 10 -257 129 -257 66 0 73 8 69 71 l-3 54 -53 3 -53 3 3 37 3 37 88 3 c57
2 94 -1 103 -9 11 -9 14 -41 14 -131 l0 -119 -36 -15 c-52 -22 -154 -29 -211
-15 -68 17 -116 54 -149 114 -25 45 -29 62 -28 132 0 66 5 89 27 132 49 94
131 136 255 129 46 -3 84 -11 105 -23z m474 15 c60 -15 115 -69 132 -131 9
-29 12 -80 9 -136 -4 -78 -8 -96 -34 -138 -38 -62 -95 -94 -177 -100 -87 -7
-143 10 -193 61 -32 31 -44 54 -53 94 -52 247 92 407 316 350z m1858 1 c100
-27 148 -103 149 -234 1 -172 -71 -261 -219 -272 -150 -12 -235 60 -251 214
-8 77 10 162 46 212 57 77 167 110 275 80z m1099 -14 c33 -16 36 -21 36 -61 0
-24 -2 -44 -4 -44 -2 0 -23 9 -47 20 -53 24 -148 26 -189 5 -48 -25 -75 -80
-75 -155 1 -108 52 -170 142 -170 68 0 73 5 73 71 l0 58 -52 3 c-50 3 -53 5
-56 32 -5 39 10 46 100 46 114 0 108 8 108 -137 l0 -124 -37 -16 c-60 -26
-207 -24 -258 4 -90 48 -126 115 -126 230 0 127 57 214 163 249 55 18 174 12
222 -11z m414 6 c17 -9 22 -21 22 -53 0 -34 -3 -39 -17 -35 -90 30 -104 31
-131 16 -30 -16 -40 -52 -21 -75 7 -9 46 -31 86 -50 89 -43 113 -74 113 -151
0 -46 -4 -58 -35 -92 -57 -63 -171 -79 -254 -36 -27 13 -31 21 -31 55 0 43 7
47 48 26 68 -34 140 -28 162 15 20 36 -2 66 -75 100 -82 39 -111 67 -124 116
-19 69 8 130 71 162 34 18 55 21 104 18 33 -2 70 -10 82 -16z m-2792 -16 c12
-46 0 -55 -70 -55 l-66 0 -2 -207 -3 -208 -50 0 -50 0 -3 207 -2 207 -68 3
c-61 3 -67 5 -70 26 -8 52 -6 52 192 52 l186 0 6 -25z m379 -15 l0 -35 -92 -3
-93 -3 0 -59 0 -60 80 0 80 0 0 -40 0 -40 -80 0 -80 0 0 -70 0 -70 95 0 95 0
0 -40 0 -40 -140 0 c-127 0 -140 2 -150 19 -14 26 -13 436 1 462 9 18 20 19
147 17 l137 -3 0 -35z m384 24 c45 -18 68 -47 72 -90 4 -53 -1 -72 -25 -95
l-24 -23 35 -31 c85 -74 48 -204 -66 -235 -23 -6 -87 -9 -143 -8 l-103 3 -3
235 c-1 129 0 240 2 247 8 20 204 17 255 -3z m1045 2 c108 -45 110 -208 3
-249 -8 -3 -5 -10 9 -21 22 -15 94 -171 94 -201 0 -13 -9 -15 -51 -13 l-52 3
-33 79 c-41 97 -57 116 -101 116 l-34 0 2 -97 2 -98 -49 0 -49 0 -3 235 c-1
129 0 240 2 247 8 19 215 18 260 -1z"/>
<path d="M3436 1270 c-85 -26 -124 -135 -73 -211 14 -22 45 -45 84 -65 76 -37
103 -60 103 -89 0 -55 -70 -76 -150 -46 -30 12 -58 21 -62 21 -16 0 -8 -67 10
-82 19 -18 84 -38 122 -38 51 0 105 23 142 60 35 34 38 43 38 91 0 78 -22 108
-116 156 -57 29 -82 47 -88 66 -20 57 56 87 125 51 17 -8 37 -13 45 -10 16 6
18 39 4 66 -18 34 -117 50 -184 30z"/>
<path d="M234 1257 c-2 -7 -3 -118 -2 -247 l3 -235 120 0 c99 1 128 5 166 22
82 37 119 108 119 230 0 122 -49 200 -144 228 -64 19 -254 21 -262 2z m252
-97 c77 -71 72 -225 -8 -284 -18 -13 -49 -21 -88 -24 l-60 -4 0 172 0 172 65
-4 c51 -3 70 -9 91 -28z"/>
<path d="M737 1263 c-4 -3 -7 -116 -7 -250 l0 -244 48 3 47 3 5 100 5 100 29
-2 c41 -3 60 -26 98 -118 l34 -80 43 -3 c24 -2 48 1 53 6 12 12 -57 170 -89
204 -24 25 -24 26 -4 33 39 12 71 63 71 111 0 107 -56 143 -221 144 -58 0
-109 -3 -112 -7z m213 -93 c48 -48 4 -120 -75 -120 l-45 0 0 70 0 70 50 0 c37
0 55 -5 70 -20z"/>
<path d="M1284 1234 c-26 -63 -154 -437 -154 -452 0 -9 13 -12 47 -10 46 3 46
3 63 53 l17 50 95 3 95 3 19 -53 c19 -52 20 -53 63 -56 24 -2 48 1 52 5 5 5
-29 117 -75 248 l-84 240 -61 3 -62 3 -15 -37z m136 -266 c0 -4 -31 -8 -69 -8
l-70 0 31 93 c16 50 32 99 35 107 4 13 73 -168 73 -192z"/>
<path d="M1661 1256 c-8 -9 -11 -83 -9 -247 l3 -234 45 0 45 0 5 199 5 199 64
-189 c35 -104 69 -195 74 -201 15 -21 85 -16 96 6 6 10 38 97 72 192 33 96 65
181 70 189 5 9 9 -70 9 -192 l0 -208 45 0 45 0 -2 248 -3 247 -66 3 c-53 2
-68 -1 -81 -15 -8 -10 -41 -89 -73 -176 -32 -87 -61 -154 -65 -150 -4 4 -31
76 -60 158 -29 85 -61 158 -72 168 -25 22 -130 24 -147 3z"/>
<path d="M2381 1033 c-45 -131 -81 -244 -81 -251 0 -9 14 -12 47 -10 l48 3 14
53 14 52 97 0 97 0 19 -52 c18 -50 21 -53 58 -56 72 -6 72 -11 -9 220 -40 117
-79 228 -85 246 -12 31 -13 32 -75 32 l-63 0 -81 -237z m209 -70 c0 -2 -31 -3
-70 -3 -38 0 -70 1 -70 3 0 3 56 171 66 197 4 11 73 -173 74 -197z"/>
<path d="M2717 1264 c-4 -4 -7 -22 -7 -41 l0 -33 70 0 70 0 2 -207 3 -208 45
0 45 0 3 208 2 207 71 0 70 0 -3 38 -3 37 -181 3 c-99 1 -183 -1 -187 -4z"/>
<path d="M3152 1023 l3 -248 45 0 45 0 3 248 2 247 -50 0 -50 0 2 -247z"/>
<path d="M3734 1257 c-2 -7 -3 -118 -2 -247 l3 -235 48 -3 47 -3 0 120 c0 67
3 121 8 121 4 0 30 -37 57 -82 92 -150 99 -158 148 -158 24 0 46 3 50 6 9 9
-16 54 -85 157 -32 48 -61 93 -64 100 -2 7 29 57 71 112 42 54 74 103 72 109
-2 6 -24 12 -49 14 l-46 3 -79 -113 -78 -113 -3 113 -3 112 -45 0 c-27 0 -47
-5 -50 -13z"/>
<path d="M4286 1261 c-9 -14 -166 -471 -166 -483 0 -5 21 -8 48 -6 47 3 47 3
63 53 l16 50 98 0 98 0 17 -50 17 -50 51 -3 c38 -2 52 1 51 10 0 7 -37 119
-82 248 l-83 235 -61 3 c-34 2 -64 -1 -67 -7z m124 -293 c0 -4 -29 -8 -65 -8
-45 0 -65 4 -65 12 0 7 14 56 32 108 l31 95 34 -100 c18 -54 33 -103 33 -107z"/>
<path d="M172 503 c3 -228 4 -239 25 -269 50 -69 -136 -64 2203 -64 2339 0
2153 -5 2203 64 21 30 22 41 25 269 l3 237 -2231 0 -2231 0 3 -237z m428 158
c0 -39 -1 -40 -43 -46 -24 -4 -55 -5 -68 -3 l-24 3 -3 -207 -2 -208 -50 0 -50
0 -2 206 -3 207 -55 0 c-30 0 -61 2 -67 4 -13 5 -18 65 -6 76 3 4 89 7 190 7
l183 0 0 -39z m745 19 c3 -11 3 -29 0 -40 -6 -18 -15 -20 -101 -20 l-94 0 0
-60 0 -59 83 -3 82 -3 0 -35 0 -35 -82 -3 -83 -3 0 -69 0 -69 98 -3 97 -3 0
-35 0 -35 -145 0 -145 0 -3 235 c-1 129 0 240 2 247 4 10 41 13 145 13 131 0
140 -1 146 -20z m722 8 c13 -17 163 -453 163 -473 0 -13 -10 -15 -52 -13 l-51
3 -17 50 -17 50 -94 3 -95 3 -18 -56 -17 -55 -44 0 c-24 0 -46 4 -49 8 -4 6
97 309 159 480 3 8 25 12 63 12 36 0 63 -5 69 -12z m891 -27 c4 -42 -6 -49
-77 -48 l-56 0 -3 -207 -2 -206 -50 0 -50 0 -2 206 -3 206 -65 2 -65 1 -3 43
-3 42 188 -2 188 -3 3 -34z m742 -1 l0 -40 -95 0 -95 0 0 -60 0 -60 79 0 c70
0 79 -2 84 -20 3 -11 3 -29 0 -40 -5 -18 -14 -20 -84 -20 l-79 0 0 -70 0 -70
95 0 95 0 0 -40 0 -41 -142 3 -143 3 -3 235 c-1 129 0 240 2 247 4 10 41 13
146 13 l140 0 0 -40z m731 30 c107 -30 134 -179 41 -237 -15 -9 -29 -18 -31
-20 -2 -1 6 -10 18 -20 26 -22 103 -195 92 -206 -5 -5 -29 -7 -55 -5 l-48 3
-31 76 c-38 92 -61 119 -98 119 l-28 0 -3 -97 -3 -98 -50 0 -50 0 -3 234 c-2
164 1 238 9 247 14 17 184 19 240 4z"/>
<path d="M1966 502 c-16 -48 -31 -93 -33 -99 -4 -10 13 -13 65 -13 l71 0 -31
93 c-17 50 -34 95 -37 99 -4 5 -20 -31 -35 -80z"/>
<path d="M4290 550 l0 -70 36 0 c36 0 73 15 86 34 4 6 8 25 8 43 0 41 -30 63
-87 63 l-43 0 0 -70z"/>
<path d="M925 1738 c-37 -29 -55 -76 -55 -145 0 -125 35 -173 124 -173 31 0
61 6 74 16 72 50 80 235 12 297 -40 35 -113 38 -155 5z"/>
<path d="M2781 1734 c-66 -55 -69 -227 -6 -290 20 -20 34 -24 80 -24 49 0 60
4 85 28 37 37 54 101 46 175 -10 100 -45 137 -131 137 -32 0 -51 -7 -74 -26z"/>
<path d="M2270 1701 c0 -33 5 -63 10 -66 16 -10 89 5 105 22 21 20 19 67 -3
86 -12 11 -36 17 -65 17 l-47 0 0 -59z"/>
<path d="M2270 1491 l0 -71 59 0 c52 0 62 3 80 26 26 33 26 55 2 85 -14 18
-31 23 -80 27 l-61 4 0 -71z"/>
<path d="M3312 1693 l3 -68 41 -3 c78 -6 124 68 74 118 -15 15 -33 20 -70 20
l-51 0 3 -67z"/>
</g>
</svg>
